HIERARCHY
ROOT Hips
{
	OFFSET -0.179506 -22.333345 2.821913
	CHANNELS 6 Xposition Yposition Zposition Zrotation Yrotation Xrotation 
	JOINT LeftUpLeg
	{
		OFFSET 6.951974 -9.140623 -0.681533
		CHANNELS 3 Zrotation Yrotation Xrotation
		JOINT LeftLeg
		{
			OFFSET 3.427654 -37.519855 -0.449580
			CHANNELS 3 Zrotation Yrotation Xrotation
			JOINT LeftFoot
			{
				OFFSET -1.359570 -39.796059 -4.369333
				CHANNELS 3 Zrotation Yrotation Xrotation
				JOINT LeftToe
				{
					OFFSET 2.635814 -5.579078 11.928840
					CHANNELS 3 Zrotation Yrotation Xrotation
					End Site
					{
						OFFSET 0.000000 0.000000 0.000000
					}
				}
			}
		}
	}
	JOINT RightUpLeg
	{
		OFFSET -6.767048 -9.052170 -0.431982
		CHANNELS 3 Zrotation Yrotation Xrotation
		JOINT RightLeg
		{
			OFFSET -3.829005 -38.256897 -0.885003
			CHANNELS 3 Zrotation Yrotation Xrotation
			JOINT RightFoot
			{
				OFFSET 1.577377 -39.841461 -4.231180
				CHANNELS 3 Zrotation Yrotation Xrotation
				JOINT RightToe
				{
					OFFSET -2.537174 -4.814398 12.334795
					CHANNELS 3 Zrotation Yrotation Xrotation
					End Site
					{
						OFFSET 0.000000 0.000000 0.000000
					}
				}
			}
		}
	}
	JOINT Spine
	{
		OFFSET -0.253288 10.896323 -2.669631
		CHANNELS 3 Zrotation Yrotation Xrotation
		JOINT Spine1
		{
			OFFSET 0.548704 13.518043 0.109247
			CHANNELS 3 Zrotation Yrotation Xrotation
			JOINT Spine2
			{
				OFFSET 0.145701 5.292222 2.542457
				CHANNELS 3 Zrotation Yrotation Xrotation
				JOINT Neck
				{
					OFFSET -0.277840 21.387037 -4.285703
					CHANNELS 3 Zrotation Yrotation Xrotation
					JOINT Head
					{
						OFFSET 0.515184 6.496960 5.134897
						CHANNELS 3 Zrotation Yrotation Xrotation
						End Site
						{
							OFFSET 0.000000 0.000000 0.000000
						}
					}
				}
				JOINT LeftShoulder
				{
					OFFSET 7.884473 12.174932 -3.408961
					CHANNELS 3 Zrotation Yrotation Xrotation
					JOINT LeftArm
					{
						OFFSET 9.097692 3.046888 -0.886815
						CHANNELS 3 Zrotation Yrotation Xrotation
						JOINT LeftForeArm
						{
							OFFSET 25.961220 -1.277207 -2.745643
							CHANNELS 3 Zrotation Yrotation Xrotation
							JOINT LeftHand
							{
								OFFSET 24.923361 0.898606 -0.117091
								CHANNELS 3 Zrotation Yrotation Xrotation
								End Site
								{
									OFFSET 0.000000 0.000000 0.000000
								}
							}
						}
					}
				}
				JOINT RightShoulder
				{
					OFFSET -8.175920 11.883285 -3.861528
					CHANNELS 3 Zrotation Yrotation Xrotation
					JOINT RightArm
					{
						OFFSET -9.601238 3.255117 -0.914307
						CHANNELS 3 Zrotation Yrotation Xrotation
						JOINT RightForeArm
						{
							OFFSET -25.374195 -1.332924 -2.140099
							CHANNELS 3 Zrotation Yrotation Xrotation
							JOINT RightHand
							{
								OFFSET -25.529810 0.777228 -0.555919
								CHANNELS 3 Zrotation Yrotation Xrotation
								End Site
								{
									OFFSET 0.000000 0.000000 0.000000
								}
							}
						}
					}
				}
			}
		}
	}
}
MOTION
Frames: 11
Frame Time: 0.033333
4.765187 87.646255 9.168245 179.088881 -1.838633 174.005871 22.961573 14.905441 3.480806 -15.243649 12.374274 17.153197 -24.284633 2.053650 8.840046 nan nan nan -17.462912 -11.404360 0.474457 4.137550 -0.660561 17.169453 32.845184 16.950718 16.454867 nan nan nan 2.265448 1.902030 8.909825 -0.240102 -5.288615 -4.111167 -1.344700 1.426771 -3.501690 -0.019362 -20.608114 -14.723970 18.803590 -24.249275 -25.410748 12.350139 -8.067119 -14.365543 -4.218201 -15.491751 -20.245897 119.202579 -49.064192 -105.609522 4.584430 -26.651315 -15.395524 -12.989290 8.320473 -14.538110 13.696890 10.791971 -22.550944 -132.648361 47.151454 -113.368921 -2.788422 19.381309 -15.090362 
4.752282 87.649742 9.183949 179.135164 -1.854425 174.001234 22.994126 14.948524 3.402535 -15.060423 12.679763 17.293624 -24.442211 1.819997 8.935589 nan nan nan -17.424631 -11.379607 0.457120 4.066357 -0.905452 17.214119 32.949238 17.151729 16.546538 nan nan nan 2.364170 1.905692 8.874056 -0.181286 -5.375713 -3.998607 -1.234752 1.344517 -3.771264 0.259106 -21.580262 -14.666888 19.130983 -25.134658 -25.505938 12.256914 -8.299927 -14.320178 -4.219278 -15.225654 -21.154968 118.298333 -49.102476 -104.239103 0.989011 -28.401981 -12.352066 -13.176016 8.697753 -14.359540 13.573276 10.615028 -22.936212 -132.737407 47.341299 -113.442691 -2.389163 19.582121 -14.881322 
4.755677 87.653961 9.188798 179.159565 -1.826093 173.984092 23.023798 14.967763 3.403527 -15.034864 12.621706 17.306271 -24.545862 1.758642 8.937224 nan nan nan -17.381461 -11.405858 0.446275 4.014359 -0.875874 17.226668 32.939670 17.186831 16.530413 nan nan nan 2.395049 1.897488 8.849395 -0.107796 -5.419738 -3.958166 -1.110723 1.281830 -3.926530 0.391950 -22.544043 -14.556570 19.619286 -25.775859 -25.730923 12.161944 -8.342037 -14.174056 -4.459177 -14.965587 -21.135483 118.483624 -48.956804 -104.536608 0.556172 -28.346559 -11.981776 -13.348548 9.027077 -14.230663 13.479525 10.492266 -23.127300 -132.804451 47.498143 -113.695965 -2.448299 19.529659 -14.694470 
4.763600 87.659805 9.178641 179.139564 -1.788772 174.032068 22.999687 14.960468 3.411113 -15.111039 12.471262 17.204884 -24.567793 1.868184 8.932376 nan nan nan -17.402113 -11.419431 0.382821 4.071342 -0.739153 17.224776 32.919595 17.054450 16.546211 nan nan nan 2.314538 1.911472 8.729889 -0.041330 -5.399473 -3.980075 -1.018013 1.274037 -3.983029 0.458016 -23.418259 -14.344676 20.191358 -26.149732 -26.110530 12.124211 -8.263181 -13.928879 -4.841387 -14.894047 -20.617297 119.152013 -48.788502 -105.534471 1.946986 -27.327443 -13.212424 -13.387771 9.230222 -14.091282 13.388694 10.371937 -23.156606 -132.900868 47.551324 -114.019869 -2.674150 19.302529 -14.739869 
4.770416 87.664818 9.177802 179.130298 -1.741973 174.042135 23.012204 14.965105 3.461934 -15.234134 12.308437 17.112189 -24.455460 2.034387 8.903125 nan nan nan -17.411602 -11.439082 0.322083 4.159444 -0.534225 17.274818 32.815737 16.891480 16.465440 nan nan nan 2.201200 1.909636 8.702215 0.062690 -5.337494 -4.067812 -0.948504 1.322040 -3.888984 0.512812 -24.061636 -14.382861 20.688262 -26.519969 -26.386965 12.178990 -8.044135 -13.794765 -5.186089 -15.024272 -20.020213 119.818605 -48.810628 -106.604839 4.294696 -26.483221 -15.445319 -13.376573 9.260336 -14.095822 13.241892 10.357526 -23.137681 -132.890605 47.626857 -114.198911 -3.035629 19.244454 -14.903534 
4.768514 87.677055 9.186011 179.129524 -1.696194 174.030553 23.035045 14.975031 3.479632 -15.303445 12.296178 17.116181 -24.384318 2.156929 8.831978 nan nan nan -17.404968 -11.345367 0.321923 4.219280 -0.460082 17.264126 32.718640 16.700753 16.325033 nan nan nan 2.094180 1.961466 8.668319 0.223830 -5.245451 -4.062423 -0.793348 1.302335 -3.774545 1.227585 -25.158837 -14.696628 20.988660 -27.067376 -26.524096 11.930423 -7.910991 -13.720479 -5.275629 -15.178895 -19.720556 120.103463 -48.758306 -106.748815 5.642711 -26.060690 -16.173891 -13.496536 9.238282 -14.216573 13.050514 10.383151 -23.178468 -132.816461 47.731335 -114.116278 -3.105768 19.410498 -15.177640 
4.753149 87.681595 9.186735 179.118510 -1.672017 173.985224 23.031430 15.058701 3.496983 -15.261054 12.337674 17.187793 -24.397965 2.173897 8.789829 nan nan nan -17.447673 -11.354147 0.355912 4.231270 -0.484370 17.269608 32.711410 16.807012 16.316263 nan nan nan 2.121317 1.974516 8.765932 0.210810 -5.243635 -4.121074 -0.811491 1.371732 -3.858923 0.933378 -24.956387 -14.672531 21.231585 -27.245525 -26.633841 12.034092 -8.109796 -13.484570 -5.348341 -15.036218 -19.851325 120.080311 -48.660778 -106.543237 5.414290 -26.217455 -15.844507 -13.396699 9.305701 -14.071815 12.873218 10.249458 -23.417540 -132.916681 47.807538 -114.210622 -3.132266 19.355335 -15.304334 
4.739491 87.697830 9.189559 179.123747 -1.672266 174.023396 23.001090 15.141599 3.420202 -15.174602 12.281360 17.249943 -24.424995 2.054660 8.727066 nan nan nan -17.438279 -11.380149 0.324020 4.190567 -0.514236 17.231595 32.814748 16.951583 16.469737 nan nan nan 2.212183 1.881527 8.758388 0.206130 -5.283516 -4.167327 -0.794562 1.361108 -3.952682 1.309368 -25.670962 -14.647859 21.555564 -27.698198 -26.559650 11.814425 -8.148587 -13.509161 -5.237337 -14.896266 -19.872480 119.949834 -48.545036 -106.381159 4.341723 -26.410285 -14.967692 -13.409204 9.531079 -13.993632 12.747521 10.211355 -23.545737 -133.040390 47.838695 -114.377533 -2.606101 19.372326 -15.123949 
4.732178 87.702293 9.190654 179.133844 -1.662695 173.986778 23.026793 15.266745 3.418774 -15.075215 12.292253 17.364873 -24.457321 1.860801 8.735595 nan nan nan -17.438023 -11.454761 0.347917 4.142938 -0.513217 17.253158 32.824765 17.091163 16.569419 nan nan nan 2.316816 1.755091 8.876214 0.158506 -5.281496 -4.217411 -0.840212 1.390518 -4.143792 1.375157 -25.940349 -14.684671 21.611734 -27.869918 -26.236132 11.775148 -8.212911 -13.393407 -5.194389 -14.781313 -19.940745 119.839173 -48.459275 -106.220368 3.677834 -26.575515 -14.592104 -13.387454 9.765315 -13.823710 12.672703 10.103788 -23.757893 -133.103452 47.899347 -114.437939 -1.814896 19.668174 -15.062398 
4.726029 87.703964 9.190665 179.152208 -1.678064 174.013722 23.050567 15.293722 3.347362 -15.046925 12.453466 17.431404 -24.430941 1.807450 8.813990 nan nan nan -17.421657 -11.464945 0.328218 4.144952 -0.531895 17.253248 32.800318 17.031492 16.587827 nan nan nan 2.289810 1.861898 8.797996 0.255983 -5.199765 -4.189039 -0.709156 1.326803 -4.194314 1.851358 -26.723918 -14.741486 21.673263 -28.138880 -26.300335 11.732369 -8.197101 -13.076585 -5.529540 -14.877050 -20.022206 119.976597 -48.358524 -106.255181 3.616670 -26.576932 -14.455666 -13.582440 9.744019 -13.801926 12.601577 10.009216 -23.834243 -133.085405 47.984090 -114.498916 -1.641783 19.752762 -15.097549 
4.725431 87.710030 9.188508 179.154099 -1.685046 174.009161 23.053385 15.309075 3.327670 -15.007503 12.509670 17.465554 -24.501769 1.838277 8.831198 nan nan nan -17.431249 -11.537180 0.323580 4.116871 -0.509612 17.282833 32.884286 17.053643 16.658470 nan nan nan 2.290294 1.965143 8.771939 0.301270 -5.166953 -4.206978 -0.668797 1.321017 -4.208857 1.936009 -26.843968 -14.741948 21.888197 -28.328180 -26.436988 11.774929 -8.282308 -12.905940 -5.814830 -14.901290 -20.042856 120.130143 -48.354100 -106.299040 3.845062 -26.495062 -14.417250 -13.653039 9.694419 -13.811071 12.578065 9.927663 -23.875933 -133.179849 48.062895 -114.614686 -1.932347 19.655155 -15.180588 
